<?xml version="1.0" encoding="UTF-8"?>
<svg width="120px" height="120px" viewBox="0 0 120 120" version="1.1" xmlns="http://www.w3.org/2000/svg" xmlns:xlink="http://www.w3.org/1999/xlink">
    <!-- Generator: Sketch 43.2 (39069) - http://www.bohemiancoding.com/sketch -->
    <title>logo</title>
    <desc>Created with Sketch.</desc>
    <defs></defs>
    <g id="Page-1" stroke="none" stroke-width="1" fill="none" fill-rule="evenodd">
        <g id="logo" fill-rule="nonzero">
            <polygon id="Shape" fill="#FFFFFF" points="0 0 119.84829 0 119.84829 119.84829 0 119.84829"></polygon>
            <path d="M18.6976166,83.6474611 L18.6976166,82.8447668 L14.8569948,82.8447668 L14.8569948,89.9807254 L18.6976166,89.9807254 L18.6976166,89.1631088 L15.7454922,89.1631088 L15.7454922,86.4696373 L18.6118135,86.4696373 L18.6118135,85.653886 L15.7454922,85.653886 L15.7454922,83.6474611 L18.6976166,83.6474611 Z M22.4797927,89.9807254 L23.3676684,89.9807254 L23.3676684,84.6503627 L28.7272539,90.281658 L28.7272539,82.8447668 L27.8381347,82.8447668 L27.8381347,88.1179275 L22.4797927,82.5003109 L22.4797927,89.9807254 L22.4797927,89.9807254 Z M32.5529534,89.9807254 L36.3929534,89.9807254 L36.3929534,89.1631088 L33.4414508,89.1631088 L33.4414508,86.4696373 L36.3071503,86.4696373 L36.3071503,85.653886 L33.4414508,85.653886 L33.4414508,83.6474611 L36.3929534,83.6474611 L36.3929534,82.8447668 L32.5529534,82.8447668 L32.5529534,89.9807254 Z M42.2101554,86.8706736 C43.2422798,86.7562694 43.9299482,85.8969948 43.9299482,84.8804145 C43.9299482,84.1933679 43.5867358,83.5181347 42.9985492,83.175544 C42.4259067,82.8453886 41.7382383,82.8453886 41.1071503,82.8453886 L40.0327461,82.8453886 L40.0327461,89.9813472 L40.9212435,89.9813472 L40.9212435,86.9589637 L41.2943005,86.9589637 L43.3865285,89.9813472 L44.4746114,89.9813472 L42.2101554,86.8706736 L42.2101554,86.8706736 Z M40.9206218,83.6344041 L41.1500518,83.6344041 C42.0379275,83.6344041 43.0986528,83.7910881 43.0986528,84.9083938 C43.0986528,86.0549223 42.1100518,86.2271503 41.2072539,86.2271503 L40.9206218,86.2271503 L40.9206218,83.6344041 L40.9206218,83.6344041 Z M50.864456,86.3850777 L50.864456,87.200829 L52.6986528,87.200829 C52.6694301,88.361658 51.4806218,89.3210363 50.3626943,89.3210363 C48.8151295,89.3210363 47.5827979,87.9027979 47.5827979,86.3993782 C47.5827979,84.7939896 48.8437306,83.504456 50.4341969,83.504456 C51.3083938,83.504456 52.1682902,83.9620725 52.6837306,84.6640415 L53.3141969,84.0627979 C52.612228,83.188601 51.5092228,82.6868394 50.4055959,82.6868394 C48.3425907,82.6868394 46.6949223,84.3786528 46.6949223,86.426114 C46.6949223,88.4045596 48.3139896,90.1386528 50.3054922,90.1386528 C52.3112953,90.1386528 53.6866321,88.6339896 53.6866321,86.6717098 L53.6866321,86.3850777 L50.864456,86.3850777 L50.864456,86.3850777 Z M58.5736788,86.8706736 L58.5736788,89.9807254 L59.4615544,89.9807254 L59.4615544,86.8706736 L61.797513,82.8447668 L60.7647668,82.8447668 L59.0169948,85.8820725 L57.2692228,82.8447668 L56.2377202,82.8447668 L58.5736788,86.8706736 Z M67.9299482,89.9807254 L69.3761658,89.9807254 C71.6263212,89.9807254 73.4176166,88.8062176 73.4176166,86.3701554 C73.4176166,83.9912953 71.598342,82.8447668 69.4053886,82.8447668 L67.9299482,82.8447668 L67.9299482,89.9807254 L67.9299482,89.9807254 Z M68.8190674,83.6474611 L69.1336788,83.6474611 C70.9529534,83.6474611 72.5154404,84.3202073 72.5154404,86.4124352 C72.5154404,88.4903627 70.9523316,89.1631088 69.1336788,89.1631088 L68.8190674,89.1631088 L68.8190674,83.6474611 L68.8190674,83.6474611 Z M78.9917098,86.8706736 C80.0225907,86.7562694 80.6965803,85.8969948 80.6965803,84.8804145 C80.6965803,84.1933679 80.3664249,83.5181347 79.7639378,83.175544 C79.1919171,82.8453886 78.5179275,82.8453886 77.8744041,82.8453886 L76.7993782,82.8453886 L76.7993782,89.9813472 L77.6872539,89.9813472 L77.6872539,86.9589637 L78.0603109,86.9589637 L80.1662176,89.9813472 L81.2412435,89.9813472 L78.9917098,86.8706736 L78.9917098,86.8706736 Z M77.6872539,83.6344041 L77.9316062,83.6344041 C78.8058031,83.6344041 79.8646632,83.7910881 79.8646632,84.9083938 C79.8646632,86.0549223 78.8760622,86.2271503 77.973886,86.2271503 L77.6872539,86.2271503 L77.6872539,83.6344041 L77.6872539,83.6344041 Z M84.9090155,82.8447668 L84.0205181,82.8447668 L84.0205181,89.9807254 L84.9090155,89.9807254 L84.9090155,82.8447668 Z M88.4773057,89.9807254 L89.3651813,89.9807254 L89.3651813,84.6503627 L94.7384456,90.281658 L94.7384456,82.8447668 L93.8493264,82.8447668 L93.8493264,88.1179275 L88.4773057,82.5003109 L88.4773057,89.9807254 L88.4773057,89.9807254 Z M99.2089119,85.9405181 L99.2089119,82.8447668 L98.3197927,82.8447668 L98.3197927,89.9807254 L99.2089119,89.9807254 L99.2089119,86.9993782 L99.5670466,86.6567876 L102.261762,89.9807254 L103.463627,89.9807254 L100.196891,86.0543005 L103.406425,82.8447668 L102.245596,82.8447668 L99.2089119,85.9405181 L99.2089119,85.9405181 Z" id="Shape" fill="#CB0879"></path>
            <path d="M68.0014508,61.3237306 C68.0729534,61.3380311 68.0157513,61.424456 68.0586528,61.481658 L68.0866321,61.481658 C68.3745078,61.2665285 68.6319171,61.0240415 68.9757513,60.9519171 C69.6640415,60.8654922 70.2945078,61.0806218 70.8385492,61.4524352 C71.0959585,61.638342 71.3253886,61.8820725 71.5548187,62.1264249 C71.7270466,62.3123316 71.984456,62.3123316 72.1995855,62.3838342 C72.8300518,62.4982383 73.3883938,62.7289119 73.9336788,63.0708808 C74.3054922,63.2872539 74.5921244,63.6876684 75.0217617,63.7436269 C75.5385307,63.8264624 76.0348181,64.006873 76.4841451,64.2752332 C77.0281865,64.6333679 77.559171,65.0766839 78.1890155,65.1910881 C79.5214508,65.3340933 80.6107772,66.0945078 81.6708808,66.8256995 C82.2864249,67.1695337 82.9896373,67.599171 83.7488083,67.3405181 C83.9490155,67.2410363 84.1218653,67.0551295 84.2064249,66.8549223 C84.2636269,66.3519171 83.9633161,65.9807254 83.6480829,65.6064249 C83.0033161,64.8752332 81.9139896,64.2460104 82.0290155,63.1436269 C82.2292228,62.3396891 83.1040415,61.8683938 83.8066321,61.6377202 C84.2064249,61.494715 84.6795855,61.5382383 84.9941969,61.2223834 C85.1664249,61.1079793 85.2385492,60.735544 85.5102591,60.8654922 C85.7396891,61.0234197 85.7689119,61.280829 85.7981347,61.5382383 C85.8976166,62.3117098 85.7396891,63.1001036 85.0246632,63.5446632 C84.6945078,63.7436269 84.3214508,63.8455959 83.9490155,63.9164767 C84.5365803,64.4045596 85.095544,64.9778238 85.424456,65.6362694 C85.6246632,66.0093264 85.7403109,66.3525389 85.7695337,66.7970984 C85.7403109,67.6290155 85.2254922,68.3589637 84.5222798,68.788601 C84.0926425,69.0037306 83.6201036,69.0895337 83.118342,69.0895337 C82.9324352,69.0764767 82.7602073,69.0323316 82.5743005,69.0323316 C82.6445596,69.4333679 82.6594819,69.962487 82.56,70.3927461 C82.5307772,70.6234197 82.387772,70.8665285 82.4020725,71.1382383 C82.5015544,71.266943 82.6744041,71.266943 82.8317098,71.266943 C83.2047668,71.2812435 83.6344041,71.253886 83.8203109,71.6412435 C83.9925389,71.9838342 84.0789637,72.399171 84.2064249,72.7585492 C84.2636269,72.8157513 84.2928497,72.944456 84.3786528,72.9152332 C84.6373057,72.6858031 84.8804145,72.399171 85.2385492,72.4868394 C85.5823834,72.7019689 85.9125389,72.9593782 86.2414508,73.2018653 C86.3266321,73.3025907 86.3558549,73.4182383 86.3701554,73.546943 C86.6567876,73.6613472 87.0006218,73.8615544 87.0864249,74.1761658 C87.1579275,74.3925389 87.1156477,74.6207254 87.1728497,74.8078756 C87.2735751,75.0373057 87.4874611,75.3226943 87.3158549,75.5801036 L87.2014508,75.6820725 L86.1544041,75.9979275 C86.0561714,76.0003057 85.963891,75.9509794 85.9112953,75.8679793 C85.3517098,75.84 84.6932642,76.012228 84.2623834,75.6093264 C84.0634197,75.4526425 83.9197927,75.237513 83.7767876,75.0373057 C83.4466321,75.2232124 82.9597927,75.3226943 82.6302591,75.1088083 C81.9419689,74.5647668 81.24,74.0474611 80.308601,74.0766839 C79.9075648,74.1631088 79.3915026,74.2781347 78.9910881,74.0909845 C78.6037306,73.8186528 78.1448705,73.6756477 77.8445596,73.2752332 C77.4,72.8014508 77.3856995,72.2561658 77.2420725,71.6698446 L77.2140933,71.6418653 C76.6265285,71.8128497 75.9668394,71.7270466 75.3655959,71.6978238 C74.8638342,71.6698446 74.3906736,71.7413472 73.9324352,71.8420725 C73.3294667,71.9680285 72.7127981,72.0158825 72.0976166,71.984456 L71.7966839,72.213886 C71.9266321,72.2561658 72.0845596,72.2431088 72.1840415,72.3438342 L72.2984456,72.4582383 C72.8014508,72.5154404 73.3597927,72.4290155 73.8466321,72.5589637 C73.9610363,72.6012435 74.0760622,72.7019689 74.1320207,72.8163731 C74.18146,72.9573243 74.1718175,73.1122759 74.105285,73.2460104 C73.8466321,73.5606218 73.7179275,73.9759585 73.387772,74.2489119 C73.2882902,74.3483938 73.0439378,74.2196891 73.0296373,74.4055959 C72.9152332,74.8924352 72.4563731,75.3226943 71.9695337,75.4246632 C71.7693264,75.4656995 71.5541969,75.4103627 71.3819689,75.3519171 C70.8087047,75.1504663 70.2074611,74.9950259 69.6198964,74.8370984 C69.4196891,74.7786528 69.2617617,74.5915026 69.0889119,74.4789637 C68.8315026,74.4646632 68.5025907,74.5653886 68.3017617,74.334715 C68.173057,74.2060104 68.0294301,73.9193782 68.0151295,73.9063212 C67.4841451,74.5790674 66.8835233,75.2387565 66.2095337,75.811399 C63.4004145,78.2039378 59.188601,78.9774093 55.6352332,77.7034197 C53.6723316,77.0151295 51.7952332,75.6957513 50.5343005,73.9193782 C50.5479793,73.8341969 50.4478756,73.8770984 50.4627979,73.8049741 C50.3483938,74.0480829 50.1761658,74.3633161 49.8901554,74.4646632 L49.0159585,74.5921244 C48.3139896,74.8812435 47.6120207,75.1237306 46.9100518,75.3817617 C46.494715,75.466943 46.0215544,75.3817617 45.7206218,75.1243523 C45.4911917,74.9079793 45.333886,74.6654922 45.1908808,74.4223834 C45.0478756,74.3496373 44.8464249,74.4068394 44.7040415,74.3639378 C44.5604145,74.3496373 44.4882902,74.2352332 44.402487,74.1357513 L43.7863212,73.1316062 C43.726633,72.9786515 43.7320235,72.8079513 43.8012435,72.6590674 C43.9305699,72.4296373 44.1736788,72.3301554 44.4167876,72.3301554 C44.8613472,72.2866321 45.362487,72.1430052 45.7784456,72.3301554 C45.9786528,72.1007254 46.2802073,72.1430052 46.5668394,72.0858031 L46.5948187,72.0715026 C46.4518135,71.9291192 46.2802073,71.8433161 46.1365803,71.6984456 C45.3345078,71.8855959 44.4317098,71.7568912 43.6576166,71.6132642 C42.9413472,71.4410363 42.3251813,71.8563731 41.6232124,71.7562694 L41.4080829,72.213886 C41.0785492,72.5720207 41.0493264,73.1888083 40.5488083,73.4319171 C40.2049741,73.5326425 39.918342,73.7620725 39.6031088,73.9336788 C39.0447668,74.2203109 38.2849741,74.1059067 37.6980311,73.9908808 C37.4543005,73.9629016 37.2683938,73.9765803 37.0526425,74.0623834 C36.8518135,74.2053886 36.6516062,74.4217617 36.4364767,74.5784456 C36.078342,74.7214508 35.7774093,75.0080829 35.3757513,75.0373057 C35.146943,75.0373057 34.9318135,74.893057 34.7023834,74.9508808 C34.4300518,75.2667358 34.3013472,75.7666321 33.842487,75.8810363 C33.3836269,76.012228 32.8395855,75.9102591 32.4099482,75.8107772 C32.2663212,75.8679793 32.1805181,75.9979275 32.0225907,75.9537824 C31.7073575,75.8810363 31.4064249,75.7958549 31.1340933,75.6379275 C31.0196891,75.5235233 31.0047668,75.3948187 30.9767876,75.266114 C30.9767876,75.0646632 31.1197927,74.8918135 31.2062176,74.720829 C31.2491192,74.5206218 31.2198964,74.2632124 31.3212435,74.0760622 C31.4642487,73.7614508 31.7788601,73.5743005 32.0654922,73.4312953 C32.1083938,73.2161658 32.2377202,73.0159585 32.4242487,72.9152332 C32.7966839,72.7150259 33.1834197,72.2704663 33.641658,72.5291192 L34.1427979,72.9587565 C34.573057,72.7728497 34.4580311,72.3282902 34.6874611,71.9689119 C34.7881865,71.7258031 34.9311917,71.4540933 35.2315026,71.439171 C35.4323316,71.3968912 35.6468394,71.4534715 35.8333679,71.439171 C36.12,71.3539896 36.4060104,71.2377202 36.6354404,71.0238342 L36.6068394,70.8366839 C36.3202073,70.306943 36.2623834,69.6770984 36.2344041,69.0323316 C35.746943,69.0895337 35.188601,69.1753368 34.6868394,69.0758549 C33.8984456,68.9459067 33.1535751,68.3446632 32.866943,67.599171 C32.522487,66.84 32.6667358,65.8078756 33.211399,65.1643523 C33.6187333,64.6746052 34.0798715,64.2322379 34.586114,63.8455959 C34.4288083,63.8020725 34.2279793,63.8020725 34.0563731,63.7728497 C33.3251813,63.6584456 32.6232124,63.0149223 32.4659067,62.2974093 C32.3515026,61.8248705 32.4516062,61.3803109 32.6810363,60.9798964 C32.7525389,60.8934715 32.838342,60.8219689 32.9819689,60.8654922 C33.3258031,61.0078756 33.4545078,61.1944041 33.7846632,61.3660104 L33.9848705,61.481658 C34.9019689,61.7962694 36.12,61.7962694 36.4632124,62.9148187 C36.6926425,63.787772 36.1479793,64.4630052 35.4889119,64.9635233 C34.9871503,65.3073575 34.5003109,65.7649741 34.2572021,66.2972021 C34.1421762,66.6820725 34.2,67.0843523 34.5438342,67.3417617 C34.8727461,67.6719171 35.4609326,67.6719171 35.8762694,67.5139896 C36.6646632,67.1850777 37.3660104,66.6690155 38.068601,66.1380311 C38.7276684,65.6362694 39.5446632,65.4497409 40.3753368,65.4230052 C40.7548248,65.3493164 41.1097248,65.1814873 41.4074611,64.9349223 C41.9235233,64.4201036 42.4961658,64.0178238 43.1695337,63.8611399 C43.4704663,63.7883938 43.7850777,63.7734715 44.1009326,63.7324352 C44.3297409,63.615544 44.5025907,63.3307772 44.7170984,63.1859067 C45.6198964,62.384456 46.8516062,62.3987565 47.812228,61.7689119 C48.3711917,61.3392746 48.9724352,61.0656995 49.7036269,61.1092228 C50.0468394,61.1235233 50.3483938,61.1807254 50.6207254,61.3094301 L50.6350259,61.3237306 C50.6636269,61.2945078 50.6064249,61.2814508 50.6207254,61.252228 C52.5836269,58.7160622 55.3206218,57.2835233 58.400829,57.0111917 C60.7647668,56.8103627 62.9577202,57.3836269 64.8484974,58.4866321 C66.0734376,59.2190295 67.1442911,60.1826076 68.0014508,61.3237306 L68.0014508,61.3237306 Z" id="Shape" fill="#EBB53B"></path>
            <path d="M34.0576166,61.9100518 C34.7023834,62.0692228 35.4329534,62.0822798 35.934715,62.6120207 C36.2070466,62.9421762 36.2356477,63.5154404 36.0348187,63.8605181 C35.6474611,64.5332642 34.8739896,64.8758549 34.4014508,65.4491192 C33.9328025,65.8393303 33.7413828,66.4710396 33.9146114,67.0557513 C34.0862176,67.5705699 34.5873575,67.9287047 35.1320207,67.9716062 C35.9483938,67.9859067 36.5788601,67.5854922 37.2236269,67.1993782 C37.8833161,66.7405181 38.4988601,66.1243523 39.2586528,65.9378238 C39.7454922,65.7519171 40.3336788,65.8526425 40.8055959,65.6511917 C41.3502591,65.5517098 41.7512953,65.1071503 42.1672539,64.7210363 C42.626114,64.3467358 43.184456,64.1185492 43.8006218,64.147772 C44.3589637,64.2329534 44.6748187,63.7181347 45.0329534,63.4022798 C45.6777202,62.8290155 46.5083938,62.757513 47.253886,62.428601 C47.7693264,62.2563731 48.1989637,61.8833161 48.6864249,61.6259067 C49.1589637,61.4256995 49.8037306,61.3964767 50.2762694,61.5687047 C50.5915026,61.7117098 50.9067358,61.8553368 51.1796891,62.055544 L53.4435233,63.9320207 C53.4721244,64.0047668 53.5585492,64.0607254 53.6151295,64.119171 C54.2605181,64.8770984 54.9332642,65.6368912 55.4487047,66.482487 C55.6209326,66.7703627 55.6781347,67.0992746 55.7639378,67.4151295 C55.878342,68.6903627 56.2221762,69.8076684 56.6381347,70.9112953 C56.7525389,71.0972021 56.9676684,71.212228 57.0963731,71.3825907 C57.4402073,71.8855959 57.6696373,72.5154404 58.2429016,72.8449741 L58.586114,73.0172021 C58.6004145,73.0451813 58.614715,73.0887047 58.586114,73.1316062 L58.5289119,73.1751295 C57.8412435,73.2895337 57.3251813,72.8592746 56.9527461,72.3581347 C56.7233161,71.9297409 56.4366839,71.4410363 55.935544,71.2688083 C55.906943,71.2557513 55.8920207,71.2831088 55.8777202,71.2980311 C55.935544,71.4559585 56.0928497,71.5846632 56.1637306,71.7276684 C56.3502591,72.0435233 56.522487,72.3724352 56.6082902,72.6870466 C56.7233161,73.0451813 57.1094301,73.317513 57.425285,73.5040415 L57.8692228,73.7334715 C57.9258031,73.7769948 57.9413472,73.8621762 57.8978238,73.9056995 L57.8256995,73.9492228 C57.0814508,73.9622798 56.4074611,73.7328497 55.9063212,73.1745078 C55.7776166,73.0445596 55.6196891,72.9158549 55.4331606,72.9158549 C55.1042487,73.2167876 54.774715,73.5034197 54.3158549,73.5326425 C53.8719171,73.4611399 53.3415544,73.4611399 52.9262176,73.6321244 C52.5394819,73.7620725 52.1670466,73.933057 51.7367876,73.9492228 C51.5359585,73.9492228 51.3071503,73.8472539 51.2350259,73.6613472 C51.2350259,73.4319171 51.0627979,73.145285 51.2064249,72.8878756 L51.4924352,72.4725389 C51.4924352,72.4140933 51.4638342,72.3718135 51.4066321,72.3568912 C51.2779275,72.3438342 51.091399,72.5427979 51.0484974,72.3289119 C51.0764767,71.8992746 51.4918135,71.6418653 51.7641451,71.3552332 C51.8362694,71.0101554 51.9649741,70.7092228 52.2080829,70.4518135 C52.2080829,70.4082902 52.1651813,70.3653886 52.1365803,70.3523316 C51.7790674,70.4082902 51.4203109,70.5090155 51.0335751,70.4953368 C50.718342,70.6520207 50.3459067,70.7676684 49.9871503,70.6520207 C49.9019689,70.6097409 49.9305699,70.5220725 49.9585492,70.4518135 C50.3316062,69.9488083 50.4746114,69.2760622 50.373886,68.6182383 C50.3459067,68.5890155 50.3309845,68.5318135 50.2731606,68.5454922 C50.2159585,68.5454922 50.2159585,68.6039378 50.1873575,68.6474611 C50.1100774,69.216141 49.9044783,69.7597985 49.586114,70.2373057 C49.3423834,70.4959585 48.9556477,70.481658 48.626114,70.5811399 C48.5539896,70.6246632 48.4681865,70.6806218 48.4681865,70.7825907 C48.453886,70.9964767 48.6111917,71.1544041 48.6976166,71.3266321 L49.4288083,72.6590674 C49.4418653,73.0321244 49.2988601,73.3753368 49.213057,73.7048705 C49.2559585,73.7633161 49.3137824,73.7340933 49.3566839,73.7048705 C49.614715,73.4909845 49.7720207,73.1751295 49.8727461,72.8598964 C49.9019689,72.7168912 49.8435233,72.5440415 49.8012435,72.4302591 L49.0563731,70.9548187 C49.0992746,70.8540933 49.2279793,70.8833161 49.3144041,70.839171 C49.4866321,70.8248705 49.6296373,70.9268394 49.7875648,70.9678756 C49.9585492,71.4267358 50.1450777,71.8712953 50.4746114,72.2723316 C50.5318135,72.5166839 50.6039378,72.8455959 50.4460104,73.0607254 C50.2929546,73.3822174 50.1110704,73.6891729 49.9025907,73.9778238 C49.7154404,74.1780311 49.4145078,74.1649741 49.1564767,74.1929534 L48.9413472,74.1929534 C48.2822798,74.5380311 47.5803109,74.7662176 46.878342,74.9825907 C46.5637306,75.1255959 46.1906736,75.0248705 45.9612435,74.8103627 C45.717513,74.6232124 45.6031088,74.3365803 45.4451813,74.079171 C45.2586528,73.8497409 44.9434197,74.0499482 44.7295337,73.9212435 C44.5430052,73.6066321 44.3564767,73.3056995 44.1842487,72.9910881 C44.1705699,72.9034197 44.1842487,72.8188601 44.2557513,72.761658 C44.5001036,72.6752332 44.7867358,72.6609326 45.0584456,72.6329534 C45.3170984,72.6174093 45.5745078,72.6609326 45.7467358,72.8468394 C46.0762694,73.2341969 46.2049741,73.7651813 46.7067358,74.0213472 C47.0934715,74.0505699 47.4373057,73.9218653 47.7668394,73.7651813 C47.9527461,73.6495337 48.1821762,73.4785492 48.1821762,73.2341969 C48.1535751,72.746114 47.8240415,72.36 47.4223834,72.0733679 C47.0076684,71.8582383 46.5631088,71.5573057 46.2472539,71.1711917 C46.1042487,70.9560622 46.0607254,70.6974093 45.9749223,70.4549223 C45.9297326,70.4097227 45.860919,70.3980044 45.8033161,70.4256995 C45.6460104,70.5687047 45.774715,70.813057 45.7890155,70.9840415 C45.8033161,71.0996891 45.8897409,71.2296373 45.8176166,71.3291192 C45.573886,71.5162694 45.2300518,71.415544 44.9148187,71.428601 C44.2986528,71.3850777 43.7396891,71.1562694 43.0949223,71.214715 C42.4781347,71.2414508 41.6617617,71.6443523 41.2035233,71.0567876 C40.9740933,70.4835233 41.0455959,69.7815544 41.1463212,69.1939896 C41.1463212,69.1212435 41.0748187,69.0932642 41.0169948,69.0795855 C40.9740933,69.065285 40.9025907,69.0926425 40.8882902,69.1498446 C40.7303627,69.7231088 40.6874611,70.3678756 40.5587565,70.9691192 C40.3299482,71.5001036 39.9711917,72.0447668 39.4265285,72.331399 C38.9396891,72.5745078 38.3956477,72.6603109 37.8217617,72.704456 C36.7753368,72.717513 35.7873575,72.9326425 35.157513,73.8360622 C35.0996891,73.9212435 35.0132642,73.9927461 35.0418653,74.1083938 C35.0710881,74.1376166 35.1432124,74.1655959 35.1854922,74.1376166 C35.9017617,73.3193782 36.8331606,73.0047668 37.8795855,73.0470466 C38.882487,73.0470466 39.8717098,72.8760622 40.5015544,72.0161658 C40.6588601,71.8302591 40.7595855,71.6151295 40.9032124,71.4149223 C41.0176166,71.4149223 41.1034197,71.5573057 41.1898446,71.6151295 C41.2035233,71.9160622 40.9604145,72.1156477 40.8603109,72.3743005 C40.7309845,72.6466321 40.5879793,72.975544 40.3013472,73.1334715 C39.9718135,73.2049741 39.6851813,73.4344041 39.399171,73.6215544 C39.0839378,73.7645596 38.6965803,73.8217617 38.3384456,73.7222798 C37.8802073,73.6346114 37.278342,73.520829 36.8337824,73.7353368 C36.6043523,73.878342 36.4327461,74.1214508 36.2033161,74.2663212 C35.8880829,74.3950259 35.6306736,74.6524352 35.2582383,74.6381347 C35.013886,74.5946114 34.6992746,74.4242487 34.4841451,74.6524352 C34.226114,74.895544 34.1396891,75.3251813 33.7964767,75.4974093 C33.3805181,75.7268394 32.9515026,75.4974093 32.5206218,75.4551295 L32.506943,75.4395855 C32.5927461,75.0534715 32.6499482,74.6524352 32.908601,74.3515026 C33.065285,74.3372021 33.2232124,74.3092228 33.3519171,74.1935751 C33.5092228,74.0505699 33.6242487,73.8497409 33.7392746,73.6787565 C34.0974093,73.4636269 34.5133679,73.2777202 34.7421762,72.8903627 C34.9137824,72.532228 34.9287047,72.2033161 35.2010363,71.8725389 L35.3446632,71.8153368 L36.0895337,71.7581347 C36.3904663,71.6281865 36.6770984,71.4858031 36.9494301,71.2700518 C37.0352332,71.1848705 37.0495337,71.0561658 37.0352332,70.9274611 C36.9065285,70.5680829 36.7765803,70.3106736 36.691399,69.9376166 C36.6055959,69.5365803 36.6627979,69.1492228 36.6192746,68.705285 C36.5912953,68.6773057 36.5626943,68.6058031 36.4905699,68.6058031 C36.0037306,68.705285 35.5162694,68.8489119 34.972228,68.7637306 C34.2273575,68.6773057 33.4532642,68.1904663 33.1809326,67.4449741 C32.9372021,66.8002073 32.9950259,65.8980311 33.4675648,65.3819689 C33.9121244,64.8236269 34.4853886,64.3933679 35.0145078,63.9488083 C35.1009326,63.8916062 35.1009326,63.7908808 35.1301554,63.691399 C35.1152332,63.5906736 35.0145078,63.4899482 34.9293264,63.4619689 C34.5854922,63.375544 34.1987565,63.4899482 33.868601,63.3475648 C33.2959585,63.1324352 32.8370984,62.5883938 32.7655959,62.000829 C32.7512953,61.7284974 32.7941969,61.4847668 32.9372021,61.2696373 C33.3121244,61.4667358 33.6273575,61.7962694 34.0576166,61.9100518 L34.0576166,61.9100518 Z M70.8528497,61.9392746 C71.1537824,62.1264249 71.282487,62.5268394 71.6412435,62.6120207 C72.2567876,62.7562694 72.8580311,62.8998964 73.4176166,63.1716062 C73.8186528,63.3718135 74.1780311,63.6584456 74.52,63.96 C74.8501554,64.1471503 75.2654922,64.1179275 75.6236269,64.2466321 C76.1396891,64.3753368 76.5687047,64.7763731 77.0418653,65.0773057 C77.6586528,65.5653886 78.5173057,65.4926425 79.2049741,65.8084974 C80.308601,66.1535751 81.211399,67.012228 82.228601,67.5282902 C82.7595855,67.8149223 83.5622798,67.9293264 84.091399,67.5997927 C84.4495337,67.3411399 84.6789637,67.012228 84.6074611,66.5527461 C84.4072539,65.4366839 83.16,64.8198964 82.5587565,63.8884974 C82.4431088,63.6590674 82.3716062,63.3724352 82.4300518,63.1001036 C82.6439378,62.5560622 83.2458031,62.2551295 83.7195855,62.0543005 C84.1206218,61.8540933 84.6074611,61.8963731 84.9798964,61.6812435 C85.108601,61.5948187 85.2242487,61.4810363 85.3237306,61.3946114 C85.4089119,61.3946114 85.4089119,61.4810363 85.4232124,61.5376166 C85.5388601,62.1973057 85.4232124,62.8843523 84.8368912,63.2717098 C84.6217617,63.4296373 84.3500518,63.4855959 84.091399,63.558342 C83.8619689,63.6578238 83.4329534,63.4576166 83.4466321,63.8592746 C83.5050777,64.0302591 83.6760622,64.173886 83.8196891,64.2889119 C84.5931606,64.9324352 85.3094301,65.7500518 85.3958549,66.7529534 C85.4238342,67.5264249 84.8940933,68.2004145 84.2350259,68.5293264 C83.7481865,68.7295337 83.1177202,68.8159585 82.5873575,68.6567876 C82.4443523,68.6443523 82.2143005,68.5013472 82.1148187,68.6872539 C82.0855959,68.9023834 82.2292228,69.0603109 82.2292228,69.2735751 C82.2864249,69.6329534 82.2864249,70.1042487 82.1720207,70.4493264 C82.1148187,70.7359585 81.8281865,71.066114 82.0855959,71.3527461 C82.3442487,71.7245596 82.8460104,71.6101554 83.2464249,71.681658 C83.4758549,71.7239378 83.5473575,71.9670466 83.6045596,72.1392746 C83.6909845,72.3544041 83.705285,72.5981347 83.7917098,72.7709845 C83.7774093,73.1720207 84.2493264,73.3430052 84.4936788,73.6159585 C84.7660104,73.9156477 85.0097409,74.4466321 85.4953368,74.4186528 C85.6532642,74.7475648 85.7539896,75.0621762 85.797513,75.4495337 L85.7390674,75.4918135 C85.3380311,75.4918135 84.8219689,75.6062176 84.5353368,75.3195855 C84.2051813,75.1056995 84.0907772,74.5038342 83.6039378,74.6611399 C83.3888083,74.8333679 83.0729534,74.8893264 82.815544,74.775544 C82.586114,74.6903627 82.4145078,74.4758549 82.2,74.3459067 C81.5260104,73.8590674 80.653057,73.6159585 79.7919171,73.8018653 C79.2901554,73.9305699 78.9040415,73.5867358 78.5036269,73.3573057 C77.9875648,73.1421762 77.8439378,72.5689119 77.7289119,72.0969948 L77.6294301,71.5106736 C77.6437306,71.452228 77.6717098,71.3950259 77.7289119,71.3794819 L77.8153368,71.3794819 C78.1032124,72.067772 78.6895337,72.8418653 79.4350259,73.0855959 C80.1220725,73.372228 80.7674611,73.0140933 81.4967876,73.1427979 C82.2,73.2292228 82.7291192,73.6737824 83.2744041,74.1034197 C83.3316062,74.1034197 83.3595855,74.0598964 83.3888083,74.0157513 L83.3888083,73.9734715 C82.758342,73.1720207 81.8698446,72.7566839 80.838342,72.826943 C79.9933679,73.0140933 79.1334715,72.7274611 78.6609326,72.0111917 C78.388601,71.5958549 78.1728497,71.1662176 78.1025907,70.677513 C78.0302715,70.1085274 77.9049604,69.5475412 77.7282902,69.0018653 C77.6710881,68.9726425 77.613886,68.9303627 77.5573057,68.9595855 L77.5001036,69.0460104 C77.5995855,69.5757513 77.7432124,70.2205181 77.5573057,70.7801036 C77.4143005,71.2246632 76.9548187,71.3801036 76.5394819,71.4105699 C76.1241451,71.4385492 75.7367876,71.3533679 75.3071503,71.3533679 C74.3042487,71.3098446 73.4306736,71.7251813 72.3985492,71.6107772 C72.4849741,71.3801036 72.6429016,71.1226943 72.5564767,70.8503627 C72.5141969,70.7944041 72.4557513,70.7801036 72.3985492,70.7944041 C72.198342,70.9088083 72.2275648,71.1512953 72.1131606,71.3092228 C71.8967876,71.6822798 71.4814508,71.9962694 71.066114,72.0826943 C70.7651813,72.3121244 70.4785492,72.6279793 70.2491192,72.8984456 C70.1496373,72.986114 70.1496373,73.1427979 70.1776166,73.2578238 C70.3927461,73.7595855 70.9510881,73.8161658 71.4099482,73.946114 C71.6250777,73.959171 71.8395855,73.8876684 71.9409326,73.7005181 C72.1268394,73.400829 72.1703627,72.8978238 72.6136788,72.8406218 L73.588601,72.8406218 C73.6588601,72.8698446 73.7316062,72.9121244 73.7595855,72.9985492 L73.7316062,73.1415544 C73.5164767,73.4002073 73.4157513,73.7291192 73.1440415,73.9299482 C72.986114,73.972228 72.772228,73.9156477 72.6702591,74.0586528 C72.613057,74.3888083 72.5272539,74.746943 72.1977202,74.9185492 C71.9533679,75.1467358 71.5821762,75.0341969 71.3098446,74.947772 C70.7937824,74.7475648 70.2484974,74.6611399 69.7336788,74.4889119 C69.5042487,74.4186528 69.4178238,74.1463212 69.1883938,74.0878756 C68.9589637,74.0306736 68.7158549,74.2165803 68.5287047,74.0151295 C68.4246612,73.7963761 68.3480195,73.5656155 68.3005181,73.3280829 C68.2140933,73.171399 68.1718135,72.9699482 68.1282902,72.7840415 C68.1003109,72.6273575 68.1425907,72.5117098 68.1867358,72.3544041 L68.9017617,71.066114 C68.9589637,70.9933679 69.0161658,70.9081865 69.1019689,70.8646632 C69.2741969,70.9081865 69.4601036,70.9933679 69.6180311,71.0810363 L69.5888083,71.1662176 L68.8588601,72.2978238 C68.7009326,72.6559585 68.8588601,73.0569948 69.015544,73.3728497 C69.0590674,73.4020725 69.0739896,73.4592746 69.1162694,73.4300518 C69.0870466,73.2006218 69.0590674,72.9711917 69.1162694,72.7417617 C69.1597927,72.5278756 69.2884974,72.3276684 69.4321244,72.1262176 L70.0041451,71.2663212 C70.0756477,71.1233161 70.0476684,70.9094301 69.9618653,70.7658031 C69.704456,70.5071503 69.3463212,70.4499482 69.1311917,70.1054922 C68.6443523,69.4762694 68.6151295,68.7307772 68.5579275,67.9280829 C68.5436269,67.8565803 68.5007254,67.771399 68.4149223,67.7570984 C68.3577202,67.7427979 68.3154404,67.8006218 68.2862176,67.8435233 C68.1282902,68.358342 68.2290155,69.0031088 68.3577202,69.4625907 C68.4584456,69.8356477 68.6151295,70.1788601 68.773057,70.5214508 C68.7873575,70.5941969 68.7438342,70.651399 68.6866321,70.6793782 C68.3005181,70.708601 67.9131606,70.6663212 67.5413472,70.6234197 C67.025285,70.5506736 66.6671503,70.1645596 66.266114,69.8630052 C66.2076684,69.8350259 66.1653886,69.892228 66.1361658,69.9214508 C66.2505699,70.4797927 66.8673575,70.7956477 67.0532642,71.3253886 C67.1832124,71.7264249 67.5693264,72.0553368 67.6700518,72.4862176 C67.6700518,72.5577202 67.6116062,72.6292228 67.5693264,72.6572021 C67.4263212,72.7007254 67.2826943,72.6 67.1682902,72.6851813 C67.1390674,72.9146114 67.2969948,73.1732642 67.197513,73.4176166 C67.0532642,73.6178238 66.8673575,73.8752332 66.6087047,73.8752332 C66.1081865,73.7030052 65.6201036,73.5021762 65.1189637,73.3442487 C64.760829,73.3150259 64.3890155,73.3734715 64.0588601,73.4169948 C63.7299482,73.3442487 63.5005181,73.0576166 63.2574093,72.8717098 C63.1709845,72.8574093 63.0982383,72.842487 63.0410363,72.8996891 C62.4826943,73.4592746 61.8802073,74.0605181 61.0495337,74.0169948 C60.9923316,74.0169948 60.9500518,73.9610363 60.9500518,73.917513 L60.9643523,73.8603109 C61.3361658,73.531399 61.7658031,73.1875648 61.9237306,72.7287047 C62.0381347,72.3556477 62.3825907,72.0690155 62.4982383,71.6965803 C62.5112953,71.6250777 62.454715,71.5970984 62.4118135,71.5821762 L62.3110881,71.6406218 C61.9094301,72.0690155 61.5948187,72.5135751 61.3081865,72.9718135 C60.9923316,73.2876684 60.547772,73.4748187 60.0901554,73.359171 C60.0329534,73.3156477 60.0329534,73.2304663 60.0615544,73.1881865 C61.7956477,72.1268394 61.9821762,70.2503627 62.4683938,68.5311917 C62.7985492,67.3995855 63.0279793,66.2381347 63.9307772,65.3067358 C65.2632124,63.8605181 66.9251813,62.9863212 68.3863212,61.7110881 C68.6026943,61.5096373 68.8172021,61.3237306 69.1025907,61.3094301 C69.7927461,61.252228 70.3510881,61.5388601 70.8528497,61.9392746 L70.8528497,61.9392746 Z" id="Shape" fill="#CB0879"></path>
            <path d="M69.2766839,63.717513 C69.3481865,63.8319171 69.2623834,63.931399 69.2051813,64.0321244 C68.8190674,64.3902591 68.345285,64.7763731 68.0586528,65.2209326 C67.9556265,65.3690856 67.8689058,65.5279345 67.8,65.694715 C67.786943,65.7090155 67.7589637,65.7239378 67.7297409,65.7090155 C67.6582383,65.478342 67.7589637,65.2501554 67.8149223,65.0219689 C68.0163731,64.4903627 68.4609326,64.0041451 68.9185492,63.6596891 C69.0180311,63.5875648 69.2194819,63.573886 69.2766839,63.717513 L69.2766839,63.717513 Z M50.4198964,64.8491192 C50.5921244,65.264456 50.5921244,65.8227979 50.4770984,66.266114 C50.4484974,66.2965803 50.4198964,66.2965803 50.3919171,66.281658 C50.3204145,65.8943005 50.2339896,65.4920207 50.0760622,65.120829 C49.9902591,64.9056995 49.7036269,64.7197927 49.8466321,64.4623834 C49.9086809,64.4055687 49.9975172,64.3887163 50.0760622,64.4188601 C50.2339896,64.5332642 50.334715,64.6911917 50.4198964,64.8491192 L50.4198964,64.8491192 Z M54.8623834,68.731399 C55.1776166,69.0895337 55.3927461,69.4768912 55.2777202,69.962487 C55.2354404,70.064456 55.2491192,70.1931606 55.1197927,70.2211399 C55.0632124,70.2503627 55.0196891,70.2080829 55.0196891,70.1496373 C55.0053886,69.892228 55.0053886,69.6348187 54.8474611,69.4184456 C54.6758549,69.2337824 54.4899482,68.9316062 54.2169948,68.9316062 C54.0304663,68.973886 53.8874611,69.2045596 53.773057,69.346943 C53.7581347,69.3761658 53.7301554,69.3761658 53.7158549,69.362487 C53.6151295,69.0895337 53.8159585,68.8744041 53.9017617,68.6462176 C54.0590674,68.4739896 54.0304663,68.0014508 54.388601,68.1581347 C54.6329534,68.2868394 54.6901554,68.559171 54.8623834,68.731399 L54.8623834,68.731399 Z M65.0070466,68.5032124 C65.1780311,68.7170984 65.3079793,68.9465285 65.4080829,69.2051813 C65.4223834,69.2611399 65.4080829,69.3195855 65.3801036,69.3761658 C65.3508808,69.4333679 65.2936788,69.4918135 65.2221762,69.4476684 C65.0350259,69.3761658 65.0642487,69.0895337 64.8211399,69.1038342 C64.6489119,69.0895337 64.5345078,69.2468394 64.3915026,69.3189637 C64.1471503,69.5471503 63.8182383,69.7778238 63.7597927,70.106114 C63.717513,70.2217617 63.7318135,70.3927461 63.6310881,70.4654922 C63.5595855,70.4797927 63.4880829,70.4219689 63.4880829,70.3647668 C63.4392472,69.9358183 63.5990163,69.5094592 63.9177202,69.2182383 C64.2186528,68.960829 64.4487047,68.6169948 64.706114,68.3160622 C64.8491192,68.2868394 64.9498446,68.3875648 65.0070466,68.5032124 L65.0070466,68.5032124 Z M54.2611399,72.0124352 C54.2891192,72.1995855 54.2891192,72.4134715 54.1318135,72.5284974 C53.9459067,72.5856995 53.7587565,72.6 53.559171,72.6 C53.5013472,72.5707772 53.4441451,72.5415544 53.4584456,72.4855959 C53.5448705,72.2412435 53.7879793,71.9825907 54.0603109,71.9272539 C54.1454922,71.9278756 54.2462176,71.9129534 54.2611399,72.0124352 L54.2611399,72.0124352 Z M65.107772,72.185285 C65.1637306,72.3139896 65.264456,72.4426943 65.1941969,72.571399 C65.0785492,72.6578238 64.878342,72.6136788 64.7353368,72.6006218 C64.5631088,72.5011399 64.5351295,72.2996891 64.5059067,72.1125389 C64.5059067,72.0702591 64.5202073,72.013057 64.5631088,71.9838342 C64.7626943,71.9832124 64.9641451,72.0273575 65.107772,72.185285 Z" id="Shape" fill="#EBB53B"></path>
            <path d="M47.4976166,73.0159585 C47.5255959,73.1446632 47.6978238,73.2746114 47.5834197,73.3740933 C47.3546114,73.5463212 47.0965803,73.6607254 46.8242487,73.6184456 C46.5948187,73.4605181 46.6097409,73.1303627 46.4225907,72.9152332 C46.3653886,72.7585492 46.1073575,72.7585492 46.1651813,72.571399 L46.2509845,72.5141969 C46.5525389,72.5141969 46.8528497,72.5141969 47.1537824,72.4569948 C47.4683938,72.4719171 47.3832124,72.8288083 47.4976166,73.0159585 Z M71.8986528,72.7144041 C71.8649582,72.9861266 71.7925125,73.2516211 71.6835233,73.5027979 C71.598342,73.6750259 71.3546114,73.6184456 71.1966839,73.5892228 C71.024456,73.5320207 70.7670466,73.5027979 70.7390674,73.2746114 C70.7098446,73.0439378 70.8093264,72.8288083 70.9249741,72.6578238 C71.1823834,72.6298446 71.4690155,72.6858031 71.7276684,72.6298446 C71.8134715,72.6136788 71.8849741,72.6429016 71.8986528,72.7144041 L71.8986528,72.7144041 Z M33.6273575,73.1297409 C33.4700518,73.4026943 33.2835233,73.732228 32.9825907,73.904456 C32.8675648,73.9324352 32.7388601,73.9324352 32.6381347,73.8752332 C32.5809326,73.8180311 32.4665285,73.760829 32.4665285,73.6601036 C32.480829,73.5593782 32.4379275,73.4169948 32.5386528,73.3442487 C32.7674611,73.2012435 32.9825907,73.0576166 33.1970984,72.8866321 C33.2692228,72.8574093 33.3544041,72.8281865 33.3985492,72.8723316 C33.4837306,72.9438342 33.5987565,73.0302591 33.6273575,73.1297409 Z M85.2528497,72.9295337 C85.4810363,73.1166839 85.7689119,73.2746114 85.9398964,73.5170984 C85.9691192,73.6458031 85.8976166,73.745285 85.8254922,73.8329534 C85.7390674,73.904456 85.6240415,73.9753368 85.4953368,73.9753368 C85.3614418,73.9616008 85.2407469,73.8885906 85.1664249,73.7763731 C85.0240415,73.56 84.8225907,73.374715 84.7653886,73.1446632 C84.8524352,73.0010363 85.0526425,72.7728497 85.2528497,72.9295337 L85.2528497,72.9295337 Z M32.4093264,74.2905699 L32.4093264,74.3912953 C32.2656995,74.7071503 32.1935751,75.122487 32.0797927,75.4936788 L32.0362694,75.5079793 C31.8223834,75.464456 31.6215544,75.3792746 31.4064249,75.307772 C31.3492228,75.2505699 31.4064249,75.1778238 31.4207254,75.1218653 C31.6495337,74.9054922 31.5923316,74.6188601 31.6352332,74.319171 C31.6787565,74.1481865 31.8366839,74.0033161 31.9939896,73.9318135 C32.1805181,73.961658 32.2949223,74.1488083 32.4093264,74.2905699 L32.4093264,74.2905699 Z M86.6567876,74.1898446 C86.7997927,74.3912953 86.7432124,74.6928497 86.7854922,74.906114 C86.827772,75.0640415 87.0298446,75.2070466 86.9284974,75.3798964 L86.3129534,75.5788601 C86.212228,75.5788601 86.2414508,75.4358549 86.212228,75.3798964 C86.1407254,75.0217617 86.0692228,74.7774093 85.9548187,74.4341969 C85.9255959,74.2339896 86.1258031,74.105285 86.2557513,73.9896373 C86.4136788,73.948601 86.5280829,74.0903627 86.6567876,74.1898446 Z M112.849741,33.3407254 C113.967047,33.3407254 114.869223,32.4230052 114.869223,31.3063212 C114.872865,30.7682409 114.661748,30.2509298 114.282662,29.8690428 C113.903576,29.4871558 113.387834,29.2722359 112.849741,29.2719171 C111.718135,29.2719171 110.799793,30.174715 110.799793,31.3063212 C110.799793,32.4230052 111.718135,33.3407254 112.849741,33.3407254 L112.849741,33.3407254 Z M112.849741,33.0969948 C111.8831,33.0657953 111.11563,32.2731549 111.11563,31.3060104 C111.11563,30.3388658 111.8831,29.5462255 112.849741,29.5150259 C113.838342,29.5150259 114.626114,30.3170984 114.626114,31.3056995 C114.626114,32.2943005 113.82342,33.0969948 112.849741,33.0969948 L112.849741,33.0969948 Z M113.164352,31.3908808 C113.580933,31.3772021 113.895544,31.2192746 113.895544,30.7604145 C113.895544,30.5751295 113.809119,30.3743005 113.638135,30.2741969 C113.465907,30.1734715 113.265078,30.1585492 113.079793,30.1585492 L112.091192,30.1585492 L112.091192,32.4366839 L112.363523,32.4366839 L112.363523,31.3902591 L112.878342,31.3902591 L113.524352,32.4366839 L113.853264,32.4366839 L113.164352,31.3908808 L113.164352,31.3908808 Z M112.362902,31.1769948 L112.362902,30.3749223 L113.022591,30.3749223 C113.293679,30.3749223 113.608912,30.4035233 113.608912,30.7610363 C113.608912,31.2198964 113.10715,31.1769948 112.793161,31.1769948 L112.362902,31.1769948 Z M100.641451,52.5836269 L96.2710881,52.5836269 L96.2710881,29.572228 L100.641451,29.572228 L100.641451,52.5836269 Z M108.036062,52.5836269 L103.664456,52.5836269 L103.664456,29.572228 L108.036062,29.572228 L108.036062,52.5836269 Z M84.5788601,47.0524352 L84.5931606,39.172228 L80.2227979,39.172228 L80.2370984,47.8980311 C80.2370984,50.8358549 83.2899482,53.2290155 87.0572021,53.2290155 C90.8263212,53.2290155 93.8785492,50.8358549 93.8785492,47.8980311 L93.8785492,39.172228 L89.5796891,39.2157513 L89.5653886,47.0524352 C89.5653886,48.3711917 88.4480829,49.4312953 87.0721244,49.4312953 C85.6961658,49.4312953 84.5645596,48.3711917 84.5645596,47.0524352 L84.5788601,47.0524352 L84.5788601,47.0524352 Z M16.333057,34.4294301 L13.9548187,34.4151295 L13.9548187,52.5544041 L9.31212435,52.5544041 L9.31212435,30.6746114 L17.293057,30.6746114 C20.9328497,30.6746114 23.8843523,33.5546114 23.8843523,37.1378238 C23.8843523,40.1751295 21.7492228,42.7249741 18.8698446,43.4132642 L25.2889119,52.5550259 L19.815544,52.5550259 L15.1585492,45.3910881 L15.1585492,40.1465285 L16.2472539,40.1465285 C17.9670466,40.1465285 19.3566839,38.8706736 19.3566839,37.2951295 C19.3560622,35.7046632 18.052228,34.4294301 16.333057,34.4294301 L16.333057,34.4294301 Z M45.6920207,45.691399 C45.6920207,43.7427979 47.1401036,42.1809326 48.9015544,42.1809326 C50.679171,42.1809326 52.1117098,43.7427979 52.1117098,45.691399 C52.1117098,47.6256995 50.679171,49.2018653 48.9015544,49.2018653 C47.1394819,49.2018653 45.6920207,47.6256995 45.6920207,45.691399 Z M52.0681865,51.0211399 C50.9073575,52.1968912 49.374715,52.9274611 47.6692228,52.9274611 C44.0586528,52.9274611 41.1363731,49.7173057 41.1363731,45.7772021 C41.1363731,41.8227979 44.0586528,38.626943 47.6692228,38.626943 C49.346114,38.626943 50.8936788,39.3146114 52.0545078,40.4748187 L52.0395855,29.6145078 L56.4093264,29.6145078 L56.4093264,52.5401036 L52.0681865,52.5401036 L52.0681865,51.0211399 Z M71.2259067,48.7573057 L67.0557513,48.7573057 L67.0557513,34.5587565 L69.9643523,34.5587565 C71.2443851,34.5628481 72.281233,35.5991406 72.2860104,36.879171 C72.281235,38.1593031 71.2444857,39.1957748 69.9643523,39.2002073 L68.4466321,39.2002073 L68.4466321,43.1266321 L71.2265285,43.1266321 C72.7883938,43.1266321 73.9479793,44.3875648 73.9479793,45.9345078 C73.904456,47.5398964 72.9158549,48.6429016 71.2259067,48.7573057 L71.2259067,48.7573057 Z M75.2368912,32.4665285 C76.2397927,33.5266321 76.813057,34.9019689 76.813057,36.3923316 C76.813057,38.0256995 76.0818653,39.5309845 74.893057,40.6333679 C77.8308808,42.0093264 78.7050777,43.7856995 78.7050777,46.2789637 C78.7050777,49.7030052 75.7386528,52.4829016 72.041658,52.5401036 L62.3850777,52.5680829 L62.3850777,30.8045596 L69.8642487,30.8331606 C72.357513,30.8331606 74.1910881,31.3056995 75.2368912,32.4665285 L75.2368912,32.4665285 Z" id="Shape" fill="#CB0879"></path>
            <path d="M29.3856995,44.144456 C29.3856995,42.6683938 30.5757513,41.4795855 32.0511917,41.4795855 C33.5266321,41.4795855 34.7166839,42.6683938 34.7166839,44.144456 L29.3856995,44.144456 Z M39.0149223,46.6520207 C39.0578238,46.3647668 39.0721244,46.0495337 39.0578238,45.7343005 C39.1299482,41.0064249 36.0062176,38.4124352 32.0082902,38.4124352 C28.0246632,38.4124352 24.7865285,41.6934715 24.7865285,45.72 C24.7865285,49.760829 28.0246632,53.0418653 32.0082902,53.0418653 C35.0598964,53.0418653 37.4238342,51.6665285 38.6567876,49.5027979 L35.1027979,47.8694301 C34.6588601,48.8431088 33.5987565,49.5320207 32.3664249,49.5320207 C30.733057,49.5320207 29.4,48.3139896 29.4,46.8093264 C29.4,46.7092228 29.3577202,46.7521244 29.371399,46.6520207 L39.0149223,46.6520207 L39.0149223,46.6520207 Z" id="Shape" fill="#CB0879"></path>
        </g>
    </g>
</svg>