<svg xmlns="http://www.w3.org/2000/svg" width="2500" height="2500" viewBox="0 0 192.756 192.756"><g fill-rule="evenodd" clip-rule="evenodd"><path fill="#fff" d="M0 0h192.756v192.756H0V0z"/><path fill="#cb0879" d="M30.072 134.533v-1.291h-6.177v11.477h6.177v-1.315h-4.748v-4.332h4.61v-1.312h-4.61v-3.227h4.748zM36.155 144.719h1.428v-8.573l8.62 9.057v-11.961h-1.43v8.481l-8.618-9.035v12.031zM52.356 144.719h6.176v-1.315h-4.747v-4.332h4.609v-1.312h-4.609v-3.227h4.747v-1.291h-6.176v11.477zM67.888 139.717c1.66-.184 2.766-1.566 2.766-3.201 0-1.105-.552-2.191-1.498-2.742-.921-.531-2.027-.531-3.042-.531h-1.728v11.477h1.429v-4.861h.6l3.365 4.861h1.75l-3.642-5.003zm-2.074-5.205h.369c1.428 0 3.134.252 3.134 2.049 0 1.844-1.59 2.121-3.042 2.121h-.461v-4.17zM81.807 138.936v1.312h2.95c-.047 1.867-1.959 3.41-3.757 3.41-2.489 0-4.471-2.281-4.471-4.699 0-2.582 2.028-4.656 4.586-4.656 1.406 0 2.789.736 3.618 1.865l1.014-.967c-1.129-1.406-2.903-2.213-4.678-2.213-3.318 0-5.968 2.721-5.968 6.014 0 3.182 2.604 5.971 5.807 5.971 3.226 0 5.438-2.42 5.438-5.576v-.461h-4.539zM94.206 139.717v5.002h1.428v-5.002l3.757-6.475H97.73l-2.811 4.885-2.811-4.885h-1.659l3.757 6.475zM109.254 144.719h2.326c3.619 0 6.5-1.889 6.5-5.807 0-3.826-2.926-5.67-6.453-5.67h-2.373v11.477zm1.43-10.186h.506c2.926 0 5.439 1.082 5.439 4.447 0 3.342-2.514 4.424-5.439 4.424h-.506v-8.871zM127.045 139.717c1.658-.184 2.742-1.566 2.742-3.201 0-1.105-.531-2.191-1.5-2.742-.92-.531-2.004-.531-3.039-.531h-1.729v11.477h1.428v-4.861h.6l3.387 4.861h1.729l-3.618-5.003zm-2.098-5.205h.393c1.406 0 3.109.252 3.109 2.049 0 1.844-1.59 2.121-3.041 2.121h-.461v-4.17zM136.562 133.242h-1.429v11.477h1.429v-11.477zM142.301 144.719h1.428v-8.573l8.642 9.057v-11.961h-1.43v8.481l-8.64-9.035v12.031zM159.561 138.221v-4.979h-1.43v11.477h1.43v-4.795l.576-.551 4.334 5.346h1.933l-5.254-6.315 5.162-5.162h-1.867l-4.884 4.979z"/><path d="M109.369 98.629c.115.023.023.162.092.254h.045c.463-.346.877-.736 1.43-.852 1.107-.139 2.121.207 2.996.805.414.299.783.691 1.152 1.084.277.299.691.299 1.037.414 1.014.184 1.912.555 2.789 1.105.598.348 1.059.992 1.75 1.082a6.635 6.635 0 0 1 2.352.855c.875.576 1.729 1.289 2.742 1.473 2.143.23 3.895 1.453 5.6 2.629.99.553 2.121 1.244 3.342.828.322-.16.6-.459.736-.781.092-.809-.391-1.406-.898-2.008-1.037-1.176-2.789-2.188-2.604-3.961.322-1.293 1.729-2.051 2.859-2.422.643-.23 1.404-.16 1.91-.668.277-.184.393-.783.83-.574.369.254.416.668.463 1.082.16 1.244-.094 2.512-1.244 3.227-.531.32-1.131.484-1.73.598.945.785 1.844 1.707 2.373 2.766.322.6.508 1.152.555 1.867-.047 1.338-.875 2.512-2.006 3.203-.691.346-1.451.484-2.258.484-.299-.021-.576-.092-.875-.092.113.645.137 1.496-.023 2.188-.047.371-.277.762-.254 1.199.16.207.438.207.691.207.6.023 1.291-.021 1.59.602.277.551.416 1.219.621 1.797.092.092.139.299.277.252.416-.369.807-.83 1.383-.689.553.346 1.084.76 1.613 1.15.137.162.184.348.207.555.461.184 1.014.506 1.152 1.012.115.348.047.715.139 1.016.162.369.506.828.23 1.242l-.184.164-1.684.508a.45.45 0 0 1-.391-.209c-.9-.045-1.959.232-2.652-.416-.32-.252-.551-.598-.781-.92-.531.299-1.314.459-1.844.115-1.107-.875-2.236-1.707-3.734-1.66-.645.139-1.475.324-2.119.023-.623-.438-1.361-.668-1.844-1.312-.715-.762-.738-1.639-.969-2.582l-.045-.045c-.945.275-2.006.137-2.973.09-.807-.045-1.568.07-2.305.232a11.55 11.55 0 0 1-2.951.229l-.484.369c.209.068.463.047.623.209l.184.184c.809.092 1.707-.047 2.49.162.184.068.369.23.459.414a.89.89 0 0 1-.043.691c-.416.506-.623 1.174-1.154 1.613-.16.16-.553-.047-.576.252-.184.783-.922 1.475-1.705 1.639-.322.066-.668-.023-.945-.117-.922-.324-1.889-.574-2.834-.828-.322-.094-.576-.395-.854-.576-.414-.023-.943.139-1.266-.232-.207-.207-.438-.668-.461-.689-.854 1.082-1.82 2.143-2.904 3.064-4.518 3.848-11.292 5.092-17.007 3.043-3.157-1.107-6.176-3.229-8.204-6.086.022-.137-.139-.068-.115-.184-.184.391-.461.898-.921 1.061l-1.406.205c-1.129.465-2.258.855-3.387 1.27-.668.137-1.429 0-1.913-.414-.369-.348-.622-.738-.852-1.129-.23-.117-.554-.025-.783-.094-.231-.023-.347-.207-.485-.367l-.991-1.615a.968.968 0 0 1 .024-.76c.208-.369.599-.529.99-.529.715-.07 1.521-.301 2.19 0 .322-.369.807-.301 1.268-.393l.045-.023c-.23-.229-.506-.367-.737-.6-1.29.301-2.742.094-3.987-.137-1.152-.277-2.143.391-3.272.23l-.346.736c-.53.576-.577 1.568-1.382 1.959-.553.162-1.014.531-1.521.807-.898.461-2.12.277-3.064.092-.392-.045-.691-.023-1.038.115-.323.23-.645.578-.991.83-.576.23-1.06.691-1.706.738-.368 0-.714-.232-1.083-.139-.438.508-.645 1.312-1.383 1.496-.738.211-1.613.047-2.304-.113-.231.092-.369.301-.623.23-.507-.117-.991-.254-1.429-.508-.184-.184-.208-.391-.253-.598 0-.324.23-.602.369-.877.069-.322.022-.736.185-1.037.23-.506.736-.807 1.197-1.037.069-.346.277-.668.577-.83.599-.322 1.221-1.037 1.958-.621l.806.691c.692-.299.507-1.014.876-1.592.162-.391.392-.828.875-.852.323-.068.668.023.968 0 .461-.137.921-.324 1.29-.668l-.046-.301c-.461-.852-.554-1.865-.599-2.902-.784.092-1.682.23-2.489.07-1.268-.209-2.466-1.176-2.927-2.375-.554-1.221-.322-2.881.554-3.916a13.66 13.66 0 0 1 2.211-2.121c-.253-.07-.576-.07-.852-.117-1.176-.184-2.305-1.219-2.558-2.373-.184-.76-.023-1.475.346-2.119.115-.139.253-.254.484-.184.553.229.76.529 1.291.805l.322.186c1.475.506 3.434.506 3.986 2.305.369 1.404-.507 2.49-1.567 3.295-.807.553-1.59 1.289-1.981 2.145-.185.619-.092 1.266.461 1.68.529.531 1.475.531 2.143.277 1.268-.529 2.396-1.359 3.526-2.213 1.06-.807 2.374-1.107 3.71-1.15a3.712 3.712 0 0 0 1.66-.785c.83-.828 1.751-1.475 2.834-1.727.484-.117.99-.141 1.498-.207.368-.188.646-.646.991-.879 1.452-1.289 3.433-1.266 4.978-2.279.899-.691 1.866-1.131 3.042-1.061.552.023 1.037.115 1.475.322l.023.023c.046-.047-.046-.068-.023-.115 3.157-4.079 7.559-6.383 12.513-6.821 3.802-.323 7.329.599 10.37 2.373a17.707 17.707 0 0 1 5.071 4.563z" fill="#ebb53b"/><path d="M54.776 99.572c1.037.256 2.212.277 3.019 1.129.438.531.484 1.453.161 2.008-.623 1.082-1.867 1.633-2.627 2.555a2.455 2.455 0 0 0-.783 2.584c.276.828 1.082 1.404 1.958 1.473 1.313.023 2.327-.621 3.364-1.242 1.061-.738 2.051-1.729 3.273-2.029.783-.299 1.729-.137 2.488-.461.876-.16 1.521-.875 2.19-1.496.738-.602 1.636-.969 2.627-.922.898.137 1.406-.691 1.982-1.199 1.037-.922 2.373-1.037 3.572-1.566.829-.277 1.52-.877 2.304-1.291.76-.322 1.797-.369 2.557-.092.507.23 1.014.461 1.453.783l3.641 3.018c.046.117.185.207.276.301 1.038 1.219 2.12 2.441 2.949 3.801.277.463.369.992.507 1.5.184 2.051.737 3.848 1.406 5.623.184.299.53.484.737.758.553.809.922 1.822 1.844 2.352l.552.277c.023.045.046.115 0 .184l-.092.07c-1.106.184-1.936-.508-2.535-1.314-.369-.689-.83-1.475-1.636-1.752-.046-.021-.07.023-.093.047.093.254.346.461.46.691.3.508.577 1.037.715 1.543.185.576.806 1.014 1.314 1.314l.714.369c.091.07.116.207.046.277l-.116.07c-1.197.021-2.281-.348-3.087-1.246-.207-.209-.461-.416-.761-.416-.529.484-1.059.945-1.797.992-.714-.115-1.567-.115-2.235.16-.622.209-1.221.484-1.913.51-.323 0-.691-.164-.807-.463 0-.369-.277-.83-.046-1.244l.46-.668c0-.094-.046-.162-.138-.186-.207-.021-.507.299-.576-.045.045-.691.713-1.105 1.151-1.566.116-.555.323-1.039.714-1.453 0-.07-.069-.139-.115-.16-.575.09-1.152.252-1.774.23-.507.252-1.106.438-1.683.252-.137-.068-.091-.209-.046-.322.6-.809.83-1.891.668-2.949-.045-.047-.069-.139-.162-.117-.092 0-.092.094-.138.164a6.087 6.087 0 0 1-.967 2.557c-.392.416-1.014.393-1.544.553-.116.07-.254.16-.254.324-.023.344.23.598.369.875l1.176 2.143c.021.6-.209 1.152-.347 1.682.069.094.162.047.231 0 .415-.344.668-.852.83-1.359.047-.23-.047-.508-.115-.691l-1.198-2.373c.069-.162.276-.115.415-.186.277-.023.507.141.761.207.275.738.575 1.453 1.105 2.098.092.393.208.922-.046 1.268a9.476 9.476 0 0 1-.874 1.475c-.301.322-.785.301-1.2.346h-.346c-1.06.555-2.189.922-3.318 1.27-.506.23-1.106.068-1.475-.277-.392-.301-.576-.762-.83-1.176-.3-.369-.807-.047-1.151-.254-.3-.506-.6-.99-.877-1.496-.022-.141 0-.277.115-.369.393-.139.854-.162 1.291-.207.416-.025.83.045 1.107.344.53.623.737 1.477 1.544 1.889.622.047 1.175-.16 1.705-.412.299-.186.668-.461.668-.854-.046-.785-.576-1.406-1.222-1.867-.667-.346-1.382-.83-1.89-1.451-.23-.346-.3-.762-.438-1.152a.242.242 0 0 0-.276-.047c-.253.23-.046.623-.023.898.023.186.162.395.046.555-.392.301-.945.139-1.452.16-.991-.07-1.89-.438-2.927-.344-.992.043-2.305.691-3.042-.254-.369-.922-.254-2.051-.092-2.996 0-.117-.115-.162-.208-.184-.069-.023-.184.021-.207.113-.254.922-.323 1.959-.53 2.926-.368.854-.945 1.73-1.821 2.191-.783.391-1.658.529-2.581.6-1.683.021-3.272.367-4.285 1.82-.093.137-.232.252-.186.438.047.047.163.092.231.047 1.152-1.316 2.65-1.822 4.333-1.754 1.613 0 3.204-.275 4.217-1.658.253-.299.415-.645.646-.967.184 0 .322.229.461.322.022.484-.369.805-.53 1.221-.208.438-.438.967-.899 1.221-.53.115-.991.484-1.451.785-.507.23-1.13.322-1.706.162-.737-.141-1.705-.324-2.42.021-.369.23-.645.621-1.014.854-.507.207-.921.621-1.52.598-.393-.07-.899-.344-1.245.023-.415.391-.554 1.082-1.106 1.359-.669.369-1.359 0-2.052-.068l-.022-.025c.138-.621.23-1.266.646-1.75.252-.023.506-.068.713-.254.253-.23.438-.553.623-.828.576-.346 1.245-.645 1.613-1.268.276-.576.3-1.105.738-1.637l.231-.092 1.198-.092c.484-.209.945-.438 1.383-.785.138-.137.161-.344.138-.551-.207-.578-.416-.992-.553-1.592-.138-.645-.046-1.268-.116-1.982-.045-.045-.091-.16-.207-.16-.783.16-1.567.391-2.442.254-1.198-.139-2.443-.922-2.881-2.121-.392-1.037-.299-2.488.461-3.318.715-.898 1.637-1.59 2.488-2.305.139-.092.139-.254.186-.414-.024-.162-.186-.324-.323-.369-.553-.139-1.175.045-1.706-.184-.921-.346-1.659-1.221-1.774-2.166-.023-.438.046-.83.276-1.176.603.317 1.11.847 1.802 1.03zM113.955 99.619c.484.301.691.945 1.268 1.082.99.232 1.957.463 2.857.9.645.322 1.223.783 1.773 1.268.531.301 1.199.254 1.775.461.83.207 1.52.852 2.281 1.336.992.785 2.373.668 3.479 1.176 1.775.555 3.227 1.936 4.863 2.766.854.461 2.145.645 2.996.115.576-.416.945-.945.83-1.684-.322-1.795-2.328-2.787-3.295-4.285-.186-.369-.301-.83-.207-1.268.344-.875 1.312-1.359 2.074-1.682.645-.322 1.428-.254 2.027-.6.207-.139.393-.322.553-.461.137 0 .137.139.16.23.186 1.061 0 2.166-.943 2.789-.346.254-.783.344-1.199.461-.369.16-1.059-.162-1.037.484.094.275.369.506.6.691 1.244 1.035 2.396 2.35 2.535 3.963.045 1.244-.807 2.328-1.867 2.857-.783.322-1.797.461-2.65.205-.23-.02-.6-.25-.76.049-.047.346.184.6.184.943.092.578.092 1.336-.092 1.891-.092.461-.553.992-.139 1.453.416.598 1.223.414 1.867.529.369.068.484.459.576.736.139.346.162.738.301 1.016-.023.645.736.92 1.129 1.359.438.482.83 1.336 1.611 1.291.254.529.416 1.035.486 1.658l-.094.068c-.645 0-1.475.184-1.936-.277-.531-.344-.715-1.312-1.498-1.059-.346.277-.854.367-1.268.184-.369-.137-.645-.482-.99-.691-1.084-.783-2.488-1.174-3.873-.875-.807.207-1.428-.346-2.072-.715-.83-.346-1.061-1.268-1.246-2.027l-.16-.943c.023-.094.068-.186.16-.211h.139c.463 1.107 1.406 2.352 2.605 2.744 1.105.461 2.143-.115 3.316.092 1.131.139 1.982.854 2.859 1.545.092 0 .137-.07.184-.141v-.068c-1.014-1.289-2.443-1.957-4.102-1.844-1.359.301-2.742-.16-3.502-1.312-.438-.668-.785-1.359-.898-2.145a14.813 14.813 0 0 0-.602-2.695c-.092-.047-.184-.115-.275-.068l-.092.139c.16.852.391 1.889.092 2.789-.23.715-.969.965-1.637 1.014-.668.045-1.291-.092-1.982-.092-1.613-.07-3.018.598-4.678.414.139-.371.393-.785.254-1.223-.068-.09-.162-.113-.254-.09-.322.184-.275.574-.459.828-.348.6-1.016 1.105-1.684 1.244-.484.369-.945.877-1.314 1.312-.16.141-.16.393-.115.578.346.807 1.244.898 1.982 1.107.346.021.691-.094.854-.395.299-.482.369-1.291 1.082-1.383h1.568c.113.047.23.115.275.254l-.045.23c-.346.416-.508.945-.945 1.268-.254.068-.598-.023-.762.207-.092.531-.23 1.107-.76 1.383-.393.367-.99.186-1.428.047-.83-.322-1.707-.461-2.535-.738-.369-.113-.508-.551-.877-.645-.369-.092-.76.207-1.061-.117a4.734 4.734 0 0 1-.367-1.105c-.139-.252-.207-.576-.277-.875-.045-.252.023-.438.094-.691l1.15-2.072c.092-.117.184-.254.322-.324.277.07.576.207.83.348l-.047.137-1.174 1.82c-.254.576 0 1.221.252 1.729.07.047.094.139.162.092-.047-.369-.092-.738 0-1.107.07-.344.277-.666.508-.99l.92-1.383c.115-.23.07-.574-.068-.805-.414-.416-.99-.508-1.336-1.062-.783-1.012-.83-2.211-.922-3.502-.023-.115-.092-.252-.23-.275-.092-.023-.16.07-.207.139-.254.828-.092 1.865.115 2.604.162.6.414 1.152.668 1.703.023.117-.047.209-.139.254-.621.047-1.244-.021-1.842-.09-.83-.117-1.406-.738-2.051-1.223-.094-.045-.162.047-.209.094.184.898 1.176 1.406 1.475 2.258.209.645.83 1.174.992 1.867 0 .115-.094.23-.162.275-.23.07-.461-.092-.645.045-.047.369.207.785.047 1.178-.232.322-.531.736-.947.736-.805-.277-1.59-.6-2.396-.854-.576-.047-1.174.047-1.705.117-.529-.117-.898-.578-1.289-.877-.139-.023-.256-.047-.348.045-.898.9-1.867 1.867-3.203 1.797-.092 0-.16-.09-.16-.16l.023-.092c.598-.529 1.289-1.082 1.543-1.82.184-.6.738-1.061.924-1.66.021-.115-.07-.16-.139-.184l-.162.094c-.646.689-1.152 1.404-1.613 2.141-.508.508-1.223.809-1.959.623-.092-.07-.092-.207-.046-.275 2.789-1.707 3.089-4.725 3.871-7.49.531-1.82.9-3.688 2.352-5.186 2.143-2.326 4.816-3.732 7.166-5.783.348-.324.693-.623 1.152-.646 1.11-.092 2.008.369 2.815 1.013z" fill="#cb0879"/><path d="M111.42 102.479c.115.184-.023.344-.115.506-.621.576-1.383 1.197-1.844 1.912a4.03 4.03 0 0 0-.416.762c-.021.023-.066.047-.113.023-.115-.371.047-.738.137-1.105.324-.855 1.039-1.637 1.775-2.191.16-.116.484-.138.576.093zM81.092 104.299c.277.668.277 1.566.092 2.279-.046.049-.092.049-.137.025-.115-.623-.254-1.27-.508-1.867-.138-.346-.599-.645-.369-1.059a.357.357 0 0 1 .369-.07c.254.184.416.438.553.692zM88.237 110.543c.507.576.853 1.199.668 1.98-.068.164-.046.371-.254.416-.091.047-.161-.021-.161-.115-.023-.414-.023-.828-.277-1.176-.276-.297-.575-.783-1.014-.783-.3.068-.53.439-.714.668-.024.047-.069.047-.092.025-.162-.439.161-.785.299-1.152.253-.277.207-1.037.783-.785.393.207.485.645.762.922zM104.553 110.176c.275.344.484.713.645 1.129.023.09 0 .184-.045.275-.047.092-.139.186-.254.115-.301-.115-.254-.576-.645-.553-.277-.023-.461.23-.691.346-.393.367-.922.738-1.016 1.266-.068.186-.045.461-.207.578-.115.023-.23-.07-.23-.162a2.166 2.166 0 0 1 .691-1.844c.484-.414.854-.967 1.268-1.451.23-.047.392.115.484.301zM87.27 115.82c.045.301.045.645-.208.83-.299.092-.6.115-.921.115-.093-.047-.185-.094-.162-.184.139-.393.53-.809.968-.898.137.001.299-.023.323.137zM104.715 116.098c.09.207.252.414.139.621-.186.139-.508.068-.738.047-.277-.16-.322-.484-.369-.785 0-.068.023-.16.092-.207.321-.001.645.07.876.324z" fill="#ebb53b"/><path d="M76.392 117.434c.045.207.322.416.138.576-.368.277-.783.461-1.221.393-.369-.254-.345-.785-.646-1.131-.092-.252-.507-.252-.414-.553l.138-.092c.485 0 .968 0 1.452-.092.506.024.369.598.553.899zM115.637 116.949a4.611 4.611 0 0 1-.346 1.268c-.137.277-.529.186-.783.139-.277-.092-.691-.139-.736-.506-.047-.371.113-.717.299-.992.414-.045.875.045 1.291-.045.138-.026.253.021.275.136zM54.084 117.617c-.253.439-.553.969-1.037 1.246-.185.045-.392.045-.554-.047-.092-.092-.276-.184-.276-.346.023-.162-.046-.391.116-.508.368-.23.714-.461 1.059-.736.116-.047.253-.094.324-.023.137.115.322.254.368.414zM137.115 117.295c.367.301.83.555 1.105.945.047.207-.068.367-.184.508-.139.115-.324.229-.531.229a.723.723 0 0 1-.529-.32c-.229-.348-.553-.646-.645-1.016.14-.231.462-.598.784-.346zM52.125 119.484v.162c-.231.508-.347 1.176-.53 1.773l-.07.023c-.344-.07-.667-.207-1.013-.322-.092-.092 0-.209.023-.299.368-.348.276-.809.345-1.291.07-.275.324-.508.577-.623.3.048.484.349.668.577zM139.373 119.322c.23.324.139.809.207 1.152.068.254.393.484.23.762l-.99.32c-.162 0-.115-.23-.162-.32-.115-.576-.23-.969-.414-1.521-.047-.322.275-.529.484-.715.254-.066.438.162.645.322zM181.5 53.623c1.797 0 3.248-1.476 3.248-3.272a3.25 3.25 0 0 0-3.248-3.272c-1.82 0-3.297 1.452-3.297 3.272 0 1.796 1.477 3.272 3.297 3.272zm0-.392a2.882 2.882 0 0 1 0-5.761c1.59 0 2.857 1.29 2.857 2.88 0 1.59-1.291 2.881-2.857 2.881zm.506-2.744c.67-.022 1.176-.276 1.176-1.014 0-.298-.139-.621-.414-.782-.277-.162-.6-.186-.898-.186h-1.59v3.664h.438v-1.683h.828l1.039 1.683h.529l-1.108-1.682zm-1.289-.344v-1.29h1.061c.436 0 .943.046.943.621 0 .738-.807.669-1.312.669h-.692zM161.865 84.572h-7.029v-37.01h7.029v37.01zM173.758 84.572h-7.031v-37.01h7.031v37.01zM136.031 75.676l.023-12.674h-7.029l.023 14.034c0 4.725 4.91 8.574 10.969 8.574 6.062 0 10.971-3.849 10.971-8.574V63.002l-6.914.07-.023 12.604c0 2.121-1.797 3.826-4.01 3.826s-4.033-1.705-4.033-3.826h.023zM26.269 55.374l-3.825-.023v29.174h-7.467v-35.19H27.813c5.854 0 10.601 4.632 10.601 10.395 0 4.885-3.434 8.986-8.065 10.093l10.324 14.703H31.87l-7.49-11.522v-8.435h1.751c2.766 0 5.001-2.052 5.001-4.586-.001-2.558-2.098-4.609-4.863-4.609zM73.488 73.487c0-3.134 2.329-5.646 5.162-5.646 2.859 0 5.163 2.512 5.163 5.646 0 3.111-2.304 5.646-5.163 5.646-2.834 0-5.162-2.535-5.162-5.646zm10.255 8.572c-1.867 1.891-4.332 3.066-7.075 3.066-5.807 0-10.507-5.163-10.507-11.5 0-6.36 4.7-11.5 10.507-11.5 2.697 0 5.186 1.106 7.053 2.972l-.024-17.467h7.028v36.872h-6.982v-2.443zM114.555 78.418h-6.707V55.582h4.678a3.746 3.746 0 0 1 3.734 3.732 3.747 3.747 0 0 1-3.734 3.733h-2.441v6.315h4.471c2.512 0 4.377 2.028 4.377 4.516-.07 2.582-1.66 4.356-4.378 4.54zm6.451-26.201c1.613 1.705 2.535 3.917 2.535 6.314 0 2.627-1.176 5.048-3.088 6.821 4.725 2.213 6.131 5.07 6.131 9.08 0 5.507-4.771 9.978-10.717 10.07l-15.531.045V49.544l12.029.046c4.01 0 6.959.76 8.641 2.627z" fill="#cb0879"/><path d="M47.262 70.999c0-2.374 1.914-4.286 4.287-4.286s4.287 1.912 4.287 4.286h-8.574zm15.487 4.033c.069-.462.092-.969.069-1.476.116-7.604-4.908-11.776-11.338-11.776-6.407 0-11.615 5.277-11.615 11.753 0 6.499 5.208 11.776 11.615 11.776 4.908 0 8.71-2.212 10.693-5.692l-5.716-2.627c-.714 1.566-2.419 2.674-4.401 2.674-2.627 0-4.771-1.959-4.771-4.379 0-.161-.068-.092-.046-.253h15.51z" fill="#cb0879"/></g></svg>